Soccer Kick
version=1
nRows=5
nColumns=41
inDegrees=yes
endheader
time	/jointset/ground_pelvis/turn/value	/jointset/ground_pelvis/turn/speed	/jointset/hip_r/hip_flexion_r/value	/jointset/hip_r/hip_flexion_r/speed	/jointset/knee_r/knee_angle_r/value	/jointset/knee_r/knee_angle_r/speed	/jointset/tib_pat_r/knee_angle_pat_r/value	/jointset/tib_pat_r/knee_angle_pat_r/speed	/jointset/ankle_r/ankle_angle_r/value	/jointset/ankle_r/ankle_angle_r/speed	/jointset/free/ball_rx/value	/jointset/free/ball_rx/speed	/jointset/free/ball_ry/value	/jointset/free/ball_ry/speed	/jointset/free/ball_rz/value	/jointset/free/ball_rz/speed	/jointset/free/ball_tx/value	/jointset/free/ball_tx/speed	/jointset/free/ball_ty/value	/jointset/free/ball_ty/speed	/jointset/free/ball_tz/value	/jointset/free/ball_tz/speed	/forceset/bifemlh_r/activation	/forceset/bifemlh_r/fiber_length	/forceset/bifemsh_r/activation	/forceset/bifemsh_r/fiber_length	/forceset/glut_max2_r/activation	/forceset/glut_max2_r/fiber_length	/forceset/psoas_r/activation	/forceset/psoas_r/fiber_length	/forceset/rect_fem_r/activation	/forceset/rect_fem_r/fiber_length	/forceset/vas_int_r/activation	/forceset/vas_int_r/fiber_length	/forceset/med_gas_r/activation	/forceset/med_gas_r/fiber_length	/forceset/soleus_r/activation	/forceset/soleus_r/fiber_length	/forceset/tib_ant_r/activation	/forceset/tib_ant_r/fiber_length
      0.36891725	     -5.51950667	    -31.52966155	      4.66301597	    390.87481527	    -51.08620867	   -569.87606913	     -0.89162254	     -9.94621373	    -38.05882518	   -617.92789197	      2.00124968	     10.77879757	      0.06997877	     -0.00000000	      4.00494647	     21.55759403	      0.69170466	     -0.04466809	      0.11898395	      0.01274258	     -0.04585233	      0.02233405	     -0.02205598	      0.08147361	     -0.02205598	      0.17154820	     -0.02205598	      0.09409479	     -0.02205598	      0.10636919	     -0.02205598	      0.15836995	     -0.02205598	      0.12232038	     -0.02205598	      0.08230978	     -0.02205598	      0.07667399	     -0.02205598	      0.11357610
      0.36919183	     -5.52814446	    -31.39111168	      4.77042038	    391.41896995	    -51.24309966	   -572.77125808	     -0.89436081	     -9.99674431	    -38.22851997	   -618.19422370	      2.00420224	     10.77994814	      0.07018564	     -0.00000000	      4.01086244	     21.55989518	      0.69169240	     -0.04467362	      0.11898714	      0.01046743	     -0.04584620	      0.02233681	     -0.02209133	      0.08149127	     -0.02209133	      0.17145750	     -0.02209133	      0.09426855	     -0.02209133	      0.10629323	     -0.02209133	      0.15841373	     -0.02209133	      0.12244500	     -0.02209133	      0.08223688	     -0.02209133	      0.07660848	     -0.02209133	      0.11365646
      0.36946641	     -5.53674771	    -31.27798843	      4.87795349	    391.81331105	    -51.40068378	   -574.92990149	     -0.89711117	    -10.03441975	    -38.39835732	   -618.95806965	      2.00715508	     10.78105886	      0.07039284	     -0.00000000	      4.01677903	     21.56211661	      0.69168013	     -0.04467893	      0.11898970	      0.00817762	     -0.04584006	      0.02233947	     -0.02212668	      0.08150853	     -0.02212668	      0.17136632	     -0.02212668	      0.09432352	     -0.02212668	      0.10621727	     -0.02212668	      0.15845780	     -0.02212668	      0.12257010	     -0.02212668	      0.08216397	     -0.02212668	      0.07654298	     -0.02212668	      0.11373665
      0.36974496	     -5.54544710	    -31.18795870	      4.98713149	    392.06346799	    -51.56105114	   -576.39357396	     -0.89991011	    -10.05996565	    -38.57092962	   -620.18863142	      2.01015092	     10.78215184	      0.07060337	     -0.00000000	      4.02278178	     21.56430257	      0.69166768	     -0.04468414	      0.11899165	      0.00584220	     -0.04583384	      0.02234207	     -0.02216254	      0.08152570	     -0.02216254	      0.17127345	     -0.02216254	      0.09449621	     -0.02216254	      0.10614022	     -0.02216254	      0.15850267	     -0.02216254	      0.12269734	     -0.02216254	      0.08209002	     -0.02216254	      0.07647653	     -0.02216254	      0.11381788
      0.37002351	     -5.55412478	    -31.12188909	      5.09635923	    392.17207839	    -51.72172910	   -577.16723700	     -0.90271447	    -10.07346862	    -38.74390147	   -621.81588458	      2.01314703	     10.78321764	      0.07081423	     -0.00000000	      4.02878512	     21.56643418	      0.69165524	     -0.04468919	      0.11899295	      0.00349664	     -0.04582762	      0.02234460	     -0.02219841	      0.08154260	     -0.02219841	      0.17118032	     -0.02219841	      0.09455408	     -0.02219841	      0.10606317	     -0.02219841	      0.15854756	     -0.02219841	      0.12282474	     -0.02219841	      0.08201606	     -0.02219841	      0.07641007	     -0.02219841	      0.11389906
